<svg version="1.1" id="Layer_1" xmlns="http://www.w3.org/2000/svg" xmlns:xlink="http://www.w3.org/1999/xlink" x="0px" y="0px"
	 width="100%" viewBox="0 0 273 96" enable-background="new 0 0 273 96" xml:space="preserve">
<path fill="#FDFEFF" opacity="1.000000" stroke="none" 
	d="
M274.000000,86.000000 
	C274.000000,89.658508 274.000000,93.317009 274.000000,97.000000 
	C212.312439,97.000000 150.624878,97.000000 88.587173,96.687775 
	C89.855690,95.280151 91.474358,94.184761 93.070473,93.045044 
	C93.047928,93.000717 93.055725,93.099846 93.324173,93.040207 
	C93.756149,92.670113 93.919685,92.359665 94.046036,92.059128 
	C94.008842,92.069038 94.085014,92.082085 94.383835,91.974091 
	C95.204170,90.979385 95.725685,90.092690 96.225922,89.157516 
	C96.204636,89.109047 96.163139,89.206444 96.408546,89.102600 
	C96.750061,88.670235 96.846169,88.341705 97.026505,87.815979 
	C97.110718,87.618782 97.092461,87.190323 97.367584,86.856689 
	C97.711525,72.252914 97.786705,57.982784 97.817917,43.712555 
	C97.818840,43.291164 97.357155,42.868759 97.221085,42.058109 
	C95.533768,24.097860 81.481613,7.854244 63.932129,3.004042 
	C61.923550,2.448927 59.975899,1.673355 58.000000,1.000000 
	C68.687561,1.000000 79.375122,1.000000 90.453674,1.364228 
	C88.541283,4.205317 87.609436,7.153734 90.586426,9.307774 
	C91.939308,10.286673 95.281708,10.185552 96.626663,9.150923 
	C99.256096,7.128199 98.496727,4.263388 96.341003,1.889569 
	C96.142052,1.670493 96.109711,1.300119 96.000000,1.000000 
	C155.234085,1.000000 214.468185,1.000000 274.000000,1.000000 
	C274.000000,28.686850 274.000000,56.374767 273.693176,84.341934 
	C268.624725,71.546516 263.958069,58.435329 258.966888,45.448853 
	C258.416595,44.017109 256.057404,42.550716 254.449738,42.446259 
	C252.582397,42.324924 249.375961,43.213367 248.891022,44.481808 
	C244.581665,55.753189 240.746429,67.205826 236.521332,78.871399 
	C235.372162,81.187660 234.473022,83.237511 233.333725,85.834862 
	C231.880753,84.131660 230.953552,83.044762 229.951263,81.607468 
	C228.324478,77.954277 226.890106,74.589417 225.185822,71.367332 
	C223.686783,68.533340 223.794937,66.662521 226.387848,64.128510 
	C233.949951,56.738174 230.430496,44.397141 220.031204,42.563900 
	C213.979660,41.497101 207.586227,42.369774 201.076736,42.369774 
	C201.076736,44.422794 201.076736,46.220818 201.002747,48.480942 
	C200.928757,61.238247 200.928757,73.533455 200.928757,86.028549 
	C203.526947,86.028549 205.439224,86.380646 207.105576,85.892799 
	C208.062408,85.612671 208.620468,83.970421 209.493378,82.509567 
	C209.547958,79.062073 209.467209,76.046356 209.531799,72.647949 
	C209.799301,71.183662 209.921478,70.102066 210.446442,69.034698 
	C213.646194,68.647125 215.459549,69.610672 216.459595,72.441246 
	C217.382355,75.052994 218.761597,77.503456 219.968170,80.384827 
	C220.930466,85.122108 223.252197,87.083031 228.016830,86.182190 
	C230.858521,85.644913 233.887756,86.005157 236.828033,86.102509 
	C243.876160,86.335869 243.875046,86.369385 245.465424,78.624847 
	C245.782135,77.899216 245.909286,77.459991 246.430923,76.982437 
	C247.862106,76.805931 248.898804,76.667763 250.370178,76.609207 
	C252.853378,76.619392 254.901901,76.549965 257.339081,76.607452 
	C258.816010,76.814453 259.904297,76.894524 261.090088,77.339043 
	C264.824005,87.568459 261.781738,85.918640 273.014099,85.915344 
	C273.342743,85.915253 273.671356,85.970535 274.000000,86.000000 
M189.965500,68.049561 
	C189.983826,60.636589 190.086517,53.221828 189.929794,45.812565 
	C189.906204,44.697327 188.670853,43.607723 187.133804,42.317574 
	C185.206696,42.317574 183.279587,42.317574 180.953415,42.317574 
	C180.953415,51.096977 180.999008,59.238319 180.920578,67.378471 
	C180.901550,69.352295 180.637939,71.359634 180.198868,73.285927 
	C179.343552,77.038284 176.820099,79.017105 172.997955,78.856956 
	C169.151031,78.695763 166.231506,76.840836 165.352142,72.903549 
	C164.888168,70.826027 164.999115,68.602531 164.989273,66.444305 
	C164.953049,58.509274 164.974899,50.573978 164.974899,42.461781 
	C161.698029,42.461781 159.112778,42.461781 155.907471,42.461781 
	C155.907471,51.655125 155.860947,60.599602 155.919342,69.543388 
	C155.990982,80.517525 162.482330,86.928505 173.368896,86.890770 
	C183.414810,86.855949 189.903549,79.782784 189.965500,68.049561 
M122.642418,65.317123 
	C122.578453,60.593262 122.504089,55.758083 126.901810,52.656387 
	C133.353394,48.106117 140.061508,49.774635 146.680176,52.634235 
	C147.777985,42.772072 147.575256,42.477688 138.249268,41.705303 
	C136.448196,41.556137 134.604996,41.723072 132.795746,41.896027 
	C118.905655,43.223881 110.890816,54.414085 113.393288,68.937378 
	C115.699562,82.322021 126.372551,89.304893 139.838608,86.239388 
	C147.912460,84.401398 148.853745,82.943680 147.324524,74.646225 
	C133.709869,82.733574 122.495781,76.459671 122.642418,65.317123 
z"/>
<path fill="#6171FC" opacity="1.000000" stroke="none" 
	d="
M57.532394,1.000000 
	C59.975899,1.673355 61.923550,2.448927 63.932129,3.004042 
	C81.481613,7.854244 95.533768,24.097860 97.188576,42.571983 
	C97.030296,54.472660 97.005699,65.470749 97.003632,76.468842 
	C97.002960,80.042664 97.061180,83.616493 97.092461,87.190323 
	C97.092461,87.190323 97.110718,87.618782 96.811646,87.949753 
	C96.396103,88.589302 96.279625,88.897873 96.163147,89.206444 
	C96.163139,89.206444 96.204636,89.109047 95.852013,89.136772 
	C95.027931,90.137024 94.556473,91.109558 94.085014,92.082085 
	C94.085014,92.082085 94.008842,92.069038 93.797691,92.146118 
	C93.409607,92.515411 93.232666,92.807632 93.055725,93.099846 
	C93.055725,93.099846 93.047928,93.000717 92.678406,93.013626 
	C86.719154,94.018913 81.162506,95.346886 75.529686,95.902390 
	C70.612419,96.387344 65.606911,95.912361 60.645432,96.047157 
	C58.756386,96.098465 56.881397,96.667130 55.000000,97.000000 
	C54.555553,97.000000 54.111111,97.000000 53.314003,96.666016 
	C53.005035,95.889442 53.048729,95.446846 53.367767,94.693207 
	C53.517479,86.266327 53.391850,78.150490 53.228157,69.749252 
	C53.396278,68.946648 53.602459,68.429428 54.188751,67.882462 
	C55.355637,65.540443 56.142418,63.228191 56.923729,60.957535 
	C56.918259,60.999134 56.889282,60.920349 57.239933,60.910347 
	C57.978661,60.184978 58.366737,59.469620 58.802780,58.764175 
	C58.850742,58.774090 58.774990,58.836197 59.048225,58.774189 
	C59.481133,58.392654 59.640804,58.073128 59.848984,57.825996 
	C59.897491,57.898396 59.752419,57.801788 60.030350,57.753250 
	C60.478893,57.388405 60.649506,57.072098 60.863602,56.807861 
	C60.907082,56.859928 60.776691,56.822437 61.050117,56.775208 
	C61.520214,56.430622 61.716885,56.133270 61.917587,55.893108 
	C61.921619,55.950294 61.848999,55.861568 62.229149,55.908501 
	C63.377930,55.226418 64.146561,54.497406 65.093552,53.545876 
	C65.810349,53.151539 66.348785,52.979721 67.075592,53.083069 
	C69.173523,52.590343 71.083092,51.822453 73.244972,50.781174 
	C75.462074,46.965141 72.258652,46.989410 70.484428,46.500866 
	C60.961662,43.878735 55.051609,37.887371 52.733585,28.268938 
	C52.433144,27.022282 51.536137,25.919397 50.915462,24.749914 
	C50.473412,24.797962 50.031361,24.846010 49.589310,24.894056 
	C49.020775,26.507238 48.405499,28.105692 47.891850,29.736164 
	C45.741463,36.562054 41.947292,42.413773 35.056839,44.676636 
	C24.642151,48.096874 13.832870,45.833752 3.164633,46.264473 
	C3.050993,44.747017 2.964949,44.089928 2.962876,43.432579 
	C2.960786,42.769867 2.967387,42.091824 3.097687,41.446228 
	C6.931761,22.449514 17.822065,9.557152 36.219658,3.134872 
	C37.861454,2.561749 39.408791,1.718041 41.000000,1.000000 
	C46.354931,1.000000 51.709858,1.000000 57.532394,1.000000 
z"/>
<path fill="#6170FC" opacity="1.000000" stroke="none" 
	d="
M15.000000,97.000000 
	C14.555664,97.000000 14.111328,97.000000 13.166155,96.703789 
	C5.365770,93.247879 2.385046,87.661064 2.682933,79.779228 
	C2.983678,71.821777 2.889880,63.840851 2.690636,55.877167 
	C2.608449,52.592148 3.711117,51.507442 6.956038,51.607872 
	C13.756460,51.818344 20.567089,51.672371 27.372555,51.753895 
	C34.516087,51.839470 40.171532,54.745602 44.044540,61.249260 
	C44.784687,62.734009 45.542263,63.816032 46.496971,65.107925 
	C46.754135,65.882278 46.814175,66.446777 46.614197,67.287064 
	C46.241013,75.575562 45.958794,83.591080 46.092159,91.599678 
	C46.151203,95.145325 44.913692,96.217033 41.502850,96.062813 
	C36.380188,95.831215 31.235273,95.880020 26.107439,96.045570 
	C22.398554,96.165314 18.702034,96.668060 15.000000,97.000000 
z"/>
<path fill="#F9FBFF" opacity="1.000000" stroke="none" 
	d="
M44.061970,60.846539 
	C40.171532,54.745602 34.516087,51.839470 27.372555,51.753895 
	C20.567089,51.672371 13.756460,51.818344 6.956038,51.607872 
	C3.711117,51.507442 2.608449,52.592148 2.690636,55.877167 
	C2.889880,63.840851 2.983678,71.821777 2.682933,79.779228 
	C2.385046,87.661064 5.365770,93.247879 12.832659,96.703789 
	C9.011859,97.000000 5.023717,97.000000 1.017788,97.000000 
	C1.017788,65.106735 1.017788,33.213459 1.017788,1.000000 
	C14.019145,1.000000 27.040915,1.000000 40.531342,1.000000 
	C39.408791,1.718041 37.861454,2.561749 36.219658,3.134872 
	C17.822065,9.557152 6.931761,22.449514 3.097687,41.446228 
	C2.967387,42.091824 2.960786,42.769867 2.962876,43.432579 
	C2.964949,44.089928 3.050993,44.747017 3.164633,46.264473 
	C13.832870,45.833752 24.642151,48.096874 35.056839,44.676636 
	C41.947292,42.413773 45.741463,36.562054 47.891850,29.736164 
	C48.405499,28.105692 49.020775,26.507238 49.589310,24.894056 
	C50.031361,24.846010 50.473412,24.797962 50.915462,24.749914 
	C51.536137,25.919397 52.433144,27.022282 52.733585,28.268938 
	C55.051609,37.887371 60.961662,43.878735 70.484428,46.500866 
	C72.258652,46.989410 75.462074,46.965141 72.878830,50.767960 
	C70.469322,51.621387 68.678268,52.214645 66.887215,52.807907 
	C66.348785,52.979721 65.810349,53.151539 64.780159,53.620167 
	C63.475266,54.565178 62.662132,55.213371 61.848999,55.861568 
	C61.848999,55.861568 61.921619,55.950294 61.650368,55.953926 
	C61.178310,56.245850 60.977501,56.534142 60.776695,56.822437 
	C60.776691,56.822437 60.907082,56.859928 60.597591,56.873810 
	C60.109539,57.192394 59.930977,57.497089 59.752419,57.801788 
	C59.752419,57.801788 59.897491,57.898396 59.587555,57.904495 
	C59.110073,58.219128 58.942532,58.527660 58.774990,58.836197 
	C58.774990,58.836197 58.850742,58.774090 58.515091,58.861694 
	C57.749386,59.606316 57.319332,60.263332 56.889282,60.920349 
	C56.889282,60.920349 56.918259,60.999134 56.606274,61.112480 
	C55.465740,63.454620 54.637192,65.683418 53.808643,67.912216 
	C53.602459,68.429428 53.396278,68.946648 53.120377,70.205551 
	C53.064579,78.966240 53.078503,86.985245 53.092426,95.004250 
	C53.048729,95.446846 53.005035,95.889442 52.980667,96.666016 
	C51.611111,97.000000 50.222221,97.000000 48.431271,96.531525 
	C48.032524,93.587593 48.135292,91.107506 48.020382,88.637535 
	C47.684910,81.426613 47.262531,74.219734 46.874218,67.011269 
	C46.814175,66.446777 46.754135,65.882278 46.418114,64.778389 
	C45.448742,63.108173 44.755356,61.977356 44.061970,60.846539 
z"/>
<path fill="#6673F5" opacity="1.000000" stroke="none" 
	d="
M274.000000,85.750000 
	C273.671356,85.970535 273.342743,85.915253 273.014099,85.915344 
	C261.781738,85.918640 264.824005,87.568459 260.961426,77.047226 
	C259.473663,76.420815 258.212067,76.450676 256.950439,76.480530 
	C254.901901,76.549965 252.853378,76.619392 250.199738,76.391281 
	C248.408554,76.402748 247.222504,76.711754 246.036438,77.020767 
	C245.909286,77.459991 245.782135,77.899216 245.197083,78.768700 
	C240.791687,85.719292 240.791687,85.719292 236.299377,83.954636 
	C236.456085,82.171371 236.613708,80.388176 236.771332,78.604988 
	C240.746429,67.205826 244.581665,55.753189 248.891022,44.481808 
	C249.375961,43.213367 252.582397,42.324924 254.449738,42.446259 
	C256.057404,42.550716 258.416595,44.017109 258.966888,45.448853 
	C263.958069,58.435329 268.624725,71.546516 273.693176,84.810593 
	C274.000000,85.000000 274.000000,85.500000 274.000000,85.750000 
M252.656494,68.852745 
	C254.370468,68.759132 256.084442,68.665520 258.348816,68.541847 
	C256.673492,63.455269 255.239594,59.101772 253.437225,53.629528 
	C251.832855,58.610546 250.454178,62.498589 249.443787,66.480095 
	C249.303452,67.033096 250.979645,68.047073 252.656494,68.852745 
z"/>
<path fill="#6B75DE" opacity="1.000000" stroke="none" 
	d="
M46.614197,67.287064 
	C47.262531,74.219734 47.684910,81.426613 48.020382,88.637535 
	C48.135292,91.107506 48.032524,93.587593 48.014603,96.531525 
	C37.312439,97.000000 26.624876,97.000000 15.468657,97.000000 
	C18.702034,96.668060 22.398554,96.165314 26.107439,96.045570 
	C31.235273,95.880020 36.380188,95.831215 41.502850,96.062813 
	C44.913692,96.217033 46.151203,95.145325 46.092159,91.599678 
	C45.958794,83.591080 46.241013,75.575562 46.614197,67.287064 
z"/>
<path fill="#6C78EA" opacity="1.000000" stroke="none" 
	d="
M95.583336,1.000000 
	C96.109711,1.300119 96.142052,1.670493 96.341003,1.889569 
	C98.496727,4.263388 99.256096,7.128199 96.626663,9.150923 
	C95.281708,10.185552 91.939308,10.286673 90.586426,9.307774 
	C87.609436,7.153734 88.541283,4.205317 90.922333,1.364228 
	C92.388893,1.000000 93.777779,1.000000 95.583336,1.000000 
z"/>
<path fill="#6C77E1" opacity="1.000000" stroke="none" 
	d="
M55.468658,97.000000 
	C56.881397,96.667130 58.756386,96.098465 60.645432,96.047157 
	C65.606911,95.912361 70.612419,96.387344 75.529686,95.902390 
	C81.162506,95.346886 86.719154,94.018913 92.700958,93.057953 
	C91.474358,94.184761 89.855690,95.280151 88.118515,96.687775 
	C77.312439,97.000000 66.624878,97.000000 55.468658,97.000000 
z"/>
<path fill="#6573F5" opacity="1.000000" stroke="none" 
	d="
M189.807648,68.971420 
	C189.903549,79.782784 183.414810,86.855949 173.368896,86.890770 
	C162.482330,86.928505 155.990982,80.517525 155.919342,69.543388 
	C155.860947,60.599602 155.907471,51.655125 155.907471,42.461781 
	C159.112778,42.461781 161.698029,42.461781 164.974899,42.461781 
	C164.974899,50.573978 164.953049,58.509274 164.989273,66.444305 
	C164.999115,68.602531 164.888168,70.826027 165.352142,72.903549 
	C166.231506,76.840836 169.151031,78.695763 172.997955,78.856956 
	C176.820099,79.017105 179.343552,77.038284 180.198868,73.285927 
	C180.637939,71.359634 180.901550,69.352295 180.920578,67.378471 
	C180.999008,59.238319 180.953415,51.096977 180.953415,42.317574 
	C183.279587,42.317574 185.206696,42.317574 187.648743,42.783737 
	C188.442261,47.302944 188.736801,51.354969 188.995148,55.409298 
	C189.283142,59.928913 189.538223,64.450623 189.807648,68.971420 
z"/>
<path fill="#6573F5" opacity="1.000000" stroke="none" 
	d="
M219.939789,80.024956 
	C218.761597,77.503456 217.382355,75.052994 216.459595,72.441246 
	C215.459549,69.610672 213.646194,68.647125 210.148666,69.156845 
	C209.427551,70.520058 209.406998,71.775345 209.386459,73.030640 
	C209.467209,76.046356 209.547958,79.062073 209.163025,82.617508 
	C203.068222,84.781776 202.028366,84.106422 201.993668,78.626694 
	C201.951614,71.987946 202.083572,65.346603 201.942947,58.710567 
	C201.867325,55.142143 201.378906,51.582466 201.076736,48.018845 
	C201.076736,46.220818 201.076736,44.422794 201.076736,42.369774 
	C207.586227,42.369774 213.979660,41.497101 220.031204,42.563900 
	C230.430496,44.397141 233.949951,56.738174 226.387848,64.128510 
	C223.794937,66.662521 223.686783,68.533340 225.185822,71.367332 
	C226.890106,74.589417 228.324478,77.954277 229.925507,82.010857 
	C229.126740,83.515320 228.399033,84.617912 227.409897,84.956306 
	C222.919571,86.492485 222.587021,81.463310 219.939789,80.024956 
M210.084503,50.084419 
	C209.904022,53.951275 209.723557,57.818130 209.528641,61.994297 
	C213.950012,61.966377 218.318604,63.265457 220.717026,59.023781 
	C221.676559,57.326832 221.793777,53.240669 220.921356,52.766068 
	C217.844177,51.092072 214.172089,50.511646 210.084503,50.084419 
z"/>
<path fill="#6875F2" opacity="1.000000" stroke="none" 
	d="
M122.679543,65.762749 
	C122.495781,76.459671 133.709869,82.733574 147.324524,74.646225 
	C148.853745,82.943680 147.912460,84.401398 139.838608,86.239388 
	C126.372551,89.304893 115.699562,82.322021 113.393288,68.937378 
	C110.890816,54.414085 118.905655,43.223881 132.795746,41.896027 
	C134.604996,41.723072 136.448196,41.556137 138.249268,41.705303 
	C147.575256,42.477688 147.777985,42.772072 146.680176,52.634235 
	C140.061508,49.774635 133.353394,48.106117 126.901810,52.656387 
	C122.504089,55.758083 122.578453,60.593262 122.679543,65.762749 
z"/>
<path fill="#757DDE" opacity="1.000000" stroke="none" 
	d="
M201.002747,48.480942 
	C201.378906,51.582466 201.867325,55.142143 201.942947,58.710567 
	C202.083572,65.346603 201.951614,71.987946 201.993668,78.626694 
	C202.028366,84.106422 203.068222,84.781776 209.027710,83.049286 
	C208.620468,83.970421 208.062408,85.612671 207.105576,85.892799 
	C205.439224,86.380646 203.526947,86.028549 200.928757,86.028549 
	C200.928757,73.533455 200.928757,61.238247 201.002747,48.480942 
z"/>
<path fill="#848CE4" opacity="1.000000" stroke="none" 
	d="
M219.968170,80.384827 
	C222.587021,81.463310 222.919571,86.492485 227.409897,84.956306 
	C228.399033,84.617912 229.126740,83.515320 230.000580,82.361252 
	C230.953552,83.044762 231.880753,84.131660 233.333725,85.834862 
	C234.473022,83.237511 235.372162,81.187660 236.521332,78.871399 
	C236.613708,80.388176 236.456085,82.171371 236.299377,83.954636 
	C240.791687,85.719292 240.791687,85.719292 245.007538,79.055115 
	C243.875046,86.369385 243.876160,86.335869 236.828033,86.102509 
	C233.887756,86.005157 230.858521,85.644913 228.016830,86.182190 
	C223.252197,87.083031 220.930466,85.122108 219.968170,80.384827 
z"/>
<path fill="#6C75DA" opacity="1.000000" stroke="none" 
	d="
M97.367584,86.856689 
	C97.061180,83.616493 97.002960,80.042664 97.003632,76.468842 
	C97.005699,65.470749 97.030296,54.472660 97.078644,42.960697 
	C97.357155,42.868759 97.818840,43.291164 97.817917,43.712555 
	C97.786705,57.982784 97.711525,72.252914 97.367584,86.856689 
z"/>
<path fill="#767ECB" opacity="1.000000" stroke="none" 
	d="
M189.886566,68.510490 
	C189.538223,64.450623 189.283142,59.928913 188.995148,55.409298 
	C188.736801,51.354969 188.442261,47.302944 188.079865,42.878082 
	C188.670853,43.607723 189.906204,44.697327 189.929794,45.812565 
	C190.086517,53.221828 189.983826,60.636589 189.886566,68.510490 
z"/>
<path fill="#757DDE" opacity="1.000000" stroke="none" 
	d="
M209.531799,72.647949 
	C209.406998,71.775345 209.427551,70.520058 209.745880,69.142624 
	C209.921478,70.102066 209.799301,71.183662 209.531799,72.647949 
z"/>
<path fill="#848CE4" opacity="1.000000" stroke="none" 
	d="
M246.430923,76.982437 
	C247.222504,76.711754 248.408554,76.402748 249.765060,76.311661 
	C248.898804,76.667763 247.862106,76.805931 246.430923,76.982437 
z"/>
<path fill="#848CE4" opacity="1.000000" stroke="none" 
	d="
M257.339081,76.607452 
	C258.212067,76.450676 259.473663,76.420815 260.863953,76.682777 
	C259.904297,76.894524 258.816010,76.814453 257.339081,76.607452 
z"/>
<path fill="#6C77E1" opacity="1.000000" stroke="none" 
	d="
M94.383835,91.974091 
	C94.556473,91.109558 95.027931,90.137024 95.873291,89.185242 
	C95.725685,90.092690 95.204170,90.979385 94.383835,91.974091 
z"/>
<path fill="#6C77E1" opacity="1.000000" stroke="none" 
	d="
M96.408554,89.102600 
	C96.279625,88.897873 96.396103,88.589302 96.727432,88.146957 
	C96.846169,88.341705 96.750061,88.670235 96.408554,89.102600 
z"/>
<path fill="#6C77E1" opacity="1.000000" stroke="none" 
	d="
M93.324173,93.040207 
	C93.232666,92.807632 93.409607,92.515411 93.834885,92.136200 
	C93.919685,92.359665 93.756149,92.670113 93.324173,93.040207 
z"/>
<path fill="#6C77E1" opacity="1.000000" stroke="none" 
	d="
M53.367767,94.693207 
	C53.078503,86.985245 53.064579,78.966240 53.158440,70.490936 
	C53.391850,78.150490 53.517479,86.266327 53.367767,94.693207 
z"/>
<path fill="#6C77E1" opacity="1.000000" stroke="none" 
	d="
M54.188751,67.882462 
	C54.637192,65.683418 55.465740,63.454620 56.611740,61.070881 
	C56.142418,63.228191 55.355637,65.540443 54.188751,67.882462 
z"/>
<path fill="#6C77E1" opacity="1.000000" stroke="none" 
	d="
M67.075592,53.083069 
	C68.678268,52.214645 70.469322,51.621387 72.626511,51.041344 
	C71.083092,51.822453 69.173523,52.590343 67.075592,53.083069 
z"/>
<path fill="#6C77E1" opacity="1.000000" stroke="none" 
	d="
M62.229149,55.908501 
	C62.662132,55.213371 63.475266,54.565178 64.601791,53.842690 
	C64.146561,54.497406 63.377930,55.226418 62.229149,55.908501 
z"/>
<path fill="#6C77E1" opacity="1.000000" stroke="none" 
	d="
M57.239929,60.910343 
	C57.319332,60.263332 57.749386,59.606316 58.467125,58.851780 
	C58.366737,59.469620 57.978661,60.184978 57.239929,60.910343 
z"/>
<path fill="#6C77E1" opacity="1.000000" stroke="none" 
	d="
M59.048225,58.774189 
	C58.942532,58.527660 59.110073,58.219128 59.539047,57.832092 
	C59.640804,58.073128 59.481133,58.392654 59.048225,58.774189 
z"/>
<path fill="#6C77E1" opacity="1.000000" stroke="none" 
	d="
M60.030350,57.753250 
	C59.930977,57.497089 60.109539,57.192394 60.554111,56.821743 
	C60.649506,57.072098 60.478893,57.388405 60.030350,57.753250 
z"/>
<path fill="#6C77E1" opacity="1.000000" stroke="none" 
	d="
M61.050117,56.775208 
	C60.977501,56.534142 61.178310,56.245850 61.646336,55.896736 
	C61.716885,56.133270 61.520214,56.430622 61.050117,56.775208 
z"/>
<path fill="#6B75DE" opacity="1.000000" stroke="none" 
	d="
M44.044540,61.249260 
	C44.755356,61.977356 45.448742,63.108173 46.220985,64.568527 
	C45.542263,63.816032 44.784687,62.734009 44.044540,61.249260 
z"/>
<path fill="#EEF3FF" opacity="1.000000" stroke="none" 
	d="
M252.235718,68.850204 
	C250.979645,68.047073 249.303452,67.033096 249.443787,66.480095 
	C250.454178,62.498589 251.832855,58.610546 253.437225,53.629528 
	C255.239594,59.101772 256.673492,63.455269 258.348816,68.541847 
	C256.084442,68.665520 254.370468,68.759132 252.235718,68.850204 
z"/>
<path fill="#F6F8FF" opacity="1.000000" stroke="none" 
	d="
M210.405060,49.800446 
	C214.172089,50.511646 217.844177,51.092072 220.921356,52.766068 
	C221.793777,53.240669 221.676559,57.326832 220.717026,59.023781 
	C218.318604,63.265457 213.950012,61.966377 209.528641,61.994297 
	C209.723557,57.818130 209.904022,53.951275 210.405060,49.800446 
z"/>
</svg>